<?xml version="1.0" encoding="UTF-8" standalone="no"?>
<svg width="35px" height="17px" viewBox="0 0 35 17" version="1.1" xmlns="http://www.w3.org/2000/svg" xmlns:xlink="http://www.w3.org/1999/xlink" xmlns:sketch="http://www.bohemiancoding.com/sketch/ns">
    <!-- Generator: Sketch 3.4.4 (17249) - http://www.bohemiancoding.com/sketch -->
    <title>Imported-Layers</title>
    <desc>Created with Sketch.</desc>
    <defs></defs>
    <g id="Page-1" stroke="none" stroke-width="1" fill="none" fill-rule="evenodd" sketch:type="MSPage">
        <g id="Desktop-HD" sketch:type="MSArtboardGroup" transform="translate(-703.000000, -50.000000)" fill="#2C3E50">
            <path d="M734.740576,61.9758657 C734.740576,62.2131045 734.692979,62.4495821 734.5983,62.6865672 C734.503363,62.9235522 734.335218,63.1349104 734.093865,63.3208955 C733.852254,63.5071343 733.520362,63.6593731 733.097931,63.7776119 C732.674982,63.8961045 732.136401,63.9552239 731.481153,63.9552239 C730.808832,63.9552239 730.23507,63.8788507 729.760902,63.7268657 C729.286475,63.5746269 728.872579,63.3759552 728.519217,63.130597 C728.165595,62.8854925 727.855174,62.6063881 727.587953,62.2930299 C727.320473,61.9804328 727.061789,61.6632687 726.811899,61.3415373 C726.561752,61.0205672 726.294531,60.7160896 726.009978,60.4283582 C725.725425,60.1408806 725.402069,59.8871493 725.039911,59.6671642 L726.152513,59.6671642 C727.031781,59.6671642 727.850776,59.5951045 728.610015,59.4514925 C729.368477,59.3078806 730.028123,59.0541493 730.588692,58.6902985 C731.149002,58.3264478 731.593163,57.8276119 731.920916,57.1932836 C732.248411,56.5589552 732.412417,55.7513284 732.412417,54.7701493 C732.412417,53.992209 732.257206,53.3071343 731.946785,52.7149254 C731.636364,52.1229701 731.209534,51.6236269 730.666297,51.2179104 C730.12306,50.8119403 729.467554,50.5074627 728.700296,50.3044776 C727.932779,50.1012388 727.100591,50 726.203991,50 L703,50 L703,53.0952687 L708.484109,53.0952687 L708.484109,63.0925373 L703,63.0925373 L703,66.2641791 L718.029564,66.2641791 L718.029564,63.0925373 L712.183555,63.0925373 L712.183555,59.6671642 L719.297376,59.6671642 C720.124908,59.6671642 720.793089,59.8488358 721.30218,60.2126866 C721.810237,60.5765373 722.262934,61.0289403 722.660273,61.5701493 C723.056578,62.1116119 723.449002,62.6992537 723.837029,63.3335821 C724.225055,63.9679104 724.707761,64.555806 725.285661,65.0970149 C725.863304,65.6384776 726.592018,66.0908806 727.471545,66.4544776 C728.35133,66.8178209 729.489283,67 730.886179,67 C733.248744,67 735.025129,66.5600299 736.215078,65.680597 C737.405285,64.8011642 738,63.6086269 738,62.1027313 L734.740576,61.9758657 L734.740576,61.9758657 L734.740576,61.9758657 Z M727.820769,56.3052239 C727.277531,56.6013284 726.488544,56.7492537 725.453806,56.7492537 L712.183555,56.7492537 L712.183555,53.0952687 L725.37646,53.0952687 C726.583222,53.0952687 727.428344,53.2518209 727.911308,53.5649254 C728.394013,53.8780299 728.635625,54.3301791 728.635625,54.9221343 C728.635625,55.5483433 728.364006,56.0093731 727.820769,56.3052239 L727.820769,56.3052239 L727.820769,56.3052239 Z" id="Imported-Layers" sketch:type="MSShapeGroup"></path>
        </g>
    </g>
</svg>